<?xml version="1.0" encoding="UTF-8" standalone="no"?>
<svg
   xmlns:dc="http://purl.org/dc/elements/1.1/"
   xmlns:cc="http://creativecommons.org/ns#"
   xmlns:rdf="http://www.w3.org/1999/02/22-rdf-syntax-ns#"
   xmlns:svg="http://www.w3.org/2000/svg"
   xmlns="http://www.w3.org/2000/svg"
   xmlns:sodipodi="http://sodipodi.sourceforge.net/DTD/sodipodi-0.dtd"
   xmlns:inkscape="http://www.inkscape.org/namespaces/inkscape"
   height="529"
   viewBox="0 0 797 529"
   width="797"
   version="1.1"
   id="svg2"
   inkscape:version="0.91 r13725"
   sodipodi:docname="logo.svg">
  <metadata
     id="metadata10">
    <rdf:RDF>
      <cc:Work
         rdf:about="">
        <dc:format>image/svg+xml</dc:format>
        <dc:type
           rdf:resource="http://purl.org/dc/dcmitype/StillImage" />
        <dc:title></dc:title>
      </cc:Work>
    </rdf:RDF>
  </metadata>
  <defs
     id="defs8" />
  <sodipodi:namedview
     pagecolor="#ffffff"
     bordercolor="#666666"
     borderopacity="1"
     objecttolerance="10"
     gridtolerance="10"
     guidetolerance="10"
     inkscape:pageopacity="0"
     inkscape:pageshadow="2"
     inkscape:window-width="1168"
     inkscape:window-height="754"
     id="namedview6"
     showgrid="false"
     inkscape:zoom="0.33375157"
     inkscape:cx="398.5"
     inkscape:cy="264.5"
     inkscape:window-x="641"
     inkscape:window-y="195"
     inkscape:window-maximized="0"
     inkscape:current-layer="svg2" />
  <path
     d="m 693.36365,526.93 c 20.252,-5.88 35.852,-18.81 42.408,-35.14 2.625,-6.54 3.338,-7.27 7.943,-8.14 34.765,-6.6 59.511,-50.23 52.214,-92.06 -4.1792,-23.95 -5.0041,-31.84 -5.3995,-51.59 -0.6209,-31.01 -4.7725,-45.38 -14.166,-49.03 -3.6052,-1.4005 -22.353,-1.4445 -26.821,-0.063 -17.978,5.5588 -21.219,6.0696 -28.881,4.5536 -18.012,-3.5636 -22.061,-4.7363 -25.008,-7.2422 -2.28,-1.94 -11.59,-6.22 -13.53,-6.22 -0.84859,0 -4.6736,-0.93238 -8.5001,-2.072 -8.8911,-2.6479 -21.422,-1.404 -31.926,3.1692 -3.6672,1.5965 -7.2141,2.9028 -7.882,2.9028 -0.66789,0 -2.7473,0.94741 -4.6209,2.1054 -3.9322,2.4302 -6.5514,1.7897 -13.111,-3.206 -2.0451,-1.5575 -5.6951,-4.3095 -8.1112,-6.1156 -2.4161,-1.8061 -5.1245,-3.9588 -6.0187,-4.7838 -1.6968,-1.5654 -10.073,-8.0695 -16.088,-12.493 -7.2945,-5.3639 -13.966,-9.4676 -21.774,-13.394 -4.4408,-2.2328 -8.3599,-4.5218 -8.7089,-5.0865 -0.34905,-0.56477 -1.2525,-1.0269 -2.0077,-1.0269 -1.3736,0 -20.329,-9.0848 -35.896,-17.204 -7.0373,-3.6704 -17.515,-10.503 -28.113,-18.334 -3.3,-2.4383 -7.6875,-5.6245 -9.75,-7.0806 -3.4418,-2.4298 -5.0081,-5.3816 -2.8556,-5.3816 1.7259,0 16.035,-12.305 15.436,-13.274 -0.37541,-0.60742 -4.1635,-0.71858 -9.9681,-0.29249 -10.462,0.76799 -11.888,-0.19003 -6.3625,-4.2753 2.7319,-2.0198 4.0854,-5.133 2.25,-5.1754 -5.9648,-0.13782 -21.009,-2.4304 -25.25,-3.8478 -3.025,-1.011 -12.25,-3.088 -20.5,-4.6154 -18.744,-3.4704 -18.465,-3.3927 -16.385,-4.5606 6.4693,-3.6328 49.997,1.4778 73.676,8.6504 13.108,3.9703 41.058,0.73371 46.531,-5.3883 1.8733,-2.0953 5.0862,-3.6012 9.9529,-4.6651 1.5264,-0.33366 4.4514,-2.0885 6.5,-3.8996 5.9059,-5.2211 13.306,-9.7883 18.229,-11.25 2.4971,-0.74157 6.026,-2.5988 7.8418,-4.1272 1.8159,-1.5284 5.2713,-3.9038 7.6788,-5.2788 8.7043,-4.9714 15.065,-9.9133 19.693,-15.3 2.8426,-3.309 7.3047,-6.9384 11.226,-9.1315 3.6164,-2.0224 7.7231,-5.2903 9.2418,-7.3541 1.5,-2.019 3.69,-4.59 4.86,-5.69 11.09,-10.393 15.52,-18.806 8.95,-16.966 -11.157,3.1224 -43.767,4.5322 -46.298,2.0016 -3.5047,-3.5047 40.288,-10.857 50.798,-8.5283 7.2483,1.6058 12.287,1.6315 12.809,0.06518 0.23128,-0.69384 1.8135,-2.4564 3.516,-3.9169 9.5341,-8.1784 20.126,-20.492 26.909,-31.283 1.0371,-1.6499 2.9106,-2.8642 5.0336,-3.2625 3.35,-0.629 6.247,-3.194 10.445,-9.245 2.178,-3.14 12.285,-22.131 12.285,-23.084 0,-0.52311 -6.5733,-0.067278 -23,1.595 -8.9587,0.90654 -41.657,8.7999 -45.932,11.088 -1.0841,0.58018 -6.3803,2.5572 -11.769,4.3934 -5.389,1.8362 -14.748,5.848 -20.798,8.9151 -6.05,3.0672 -13.925,6.6821 -17.5,8.0332 -8.5214,3.2205 -30.891,14.016 -43.5,20.992 -1.1,0.60865 -6.95,3.7459 -13,6.9716 -6.05,3.2257 -12.027,6.8268 -13.282,8.0023 -2.1866,2.0478 -5.2041,3.869 -28.392,17.136 -5.6792,3.2494 -13.701,7.9144 -17.826,10.367 -4.125,2.4522 -8.85,5.2401 -10.5,6.1955 -13.941,8.0718 -25.259,15.139 -32,19.982 -6.8605,4.9288 -20.75,14.134 -30.904,20.481 -3.7889,2.3684 -10.759,1.6649 -19.596,-1.9778 -9.9794,-4.1136 -25.677,-3.3553 -38.624,1.8657 -5.0182,2.0236 -9.5306,3.6794 -10.028,3.6794 -0.49701,0 -4.2662,1.7131 -8.376,3.8069 -4.1098,2.0938 -10.622,5.06 -14.472,6.5915 -3.85,1.5315 -7.45,3.1541 -8,3.6057 -1.9619,1.6111 -16.768,7.0612 -28.785,10.596 -6.7185,1.9761 -12.643,3.9996 -13.165,4.4966 -0.5225,0.49706 -2.238,0.90375 -3.8121,0.90375 -2.8643,0 -9.2875,1.6716 -17.738,4.6162 -6.9641,2.4267 -13.688,4.2667 -23.5,6.431 -4.95,1.0918 -9.9,2.3655 -11,2.8304 -1.1,0.46488 -3.669,1.5665 -5.709,2.4481 -4.0267,1.7402 -21.375,14.675 -31.791,23.703 -3.575,3.0987 -8.075,6.7101 -10,8.0254 -1.925,1.3153 -4.4,3.2282 -5.5,4.2508 -1.1,1.0227 -4.7,3.8541 -8,6.2921 -7.6096,5.6218 -9.8757,7.4915 -27.325,22.545 -16.523,14.254 -25.222002,21.112 -30.175002,23.791 -6.3644,3.4415 -16.619,14.141 -18.438,19.238 -1.2712,3.562 -2.3657,4.9141 -4.6118,5.697 -1.6197,0.56464 -4.4087,2.0858 -6.1977,3.3803 -1.789,1.2945 -4.42,2.9318 -5.8466,3.6384 -1.4267,0.7066 -4.4511,2.9823 -6.7209,5.0572 -5.1403,4.6987 -13.872,11.312 -17.185,13.016 -9.6708,4.9726 -10.78,11.829 -3.0832,19.055 l 4.9168,4.6162 -9.1668,10.435 c -9.6649,11.002 -11.067,12.32 -19.1170003,17.967 -10.395,7.292 -5.73740002,9.4472 6.2263003,2.8812 12.918,-7.0898 25.359,-9.5768 39.004,-7.7972 8.92,1.14 11.22,0.47 11.22,-3.28 0,-4.9157 18.889,-19.45 41.500002,-31.932 3.3,-1.8217 7.35,-4.3004 9,-5.5082 1.65,-1.2078 5.7,-3.6634 9,-5.4569 3.3,-1.7935 10.05,-5.5122 15,-8.2637 28.216,-15.684 31.306,-16.829 33.616,-12.448 2.2045,4.1801 17.346,18.877 22.132,21.482 2.6134,1.4224 4.7516,2.9343 4.7516,3.3598 0,0.42553 0.86289,1.0476 1.9175,1.3823 5.0986,1.6182 7.0511,4.3569 5.5936,7.8454 -2.629,6.292 -3.1791,38.55 -0.76513,44.863 2.1174,5.5381 4.2197,14.386 6.2531,26.318 2.7141,15.926 10.275,19.418 21.193,9.7873 2.5136,-2.2171 3.8204,-1.2612 5.6958,4.1666 4.1193,11.922 19.602,13.022 27.328,1.9411 7.1469,-10.251 9.4163,-29.174 4.9644,-41.395 -1.1019,-3.025 -3.4043,-9.325 -5.1164,-14 -8.6224,-23.544 -5.5982,-28.921 12.936,-23 3.4433,1.1 7.5877,2 9.2097,2 4.394,0 16.469,5.0699 35.29,14.817 8.034,4.1607 15.187,7.0785 23.505,9.5883 4.7896,1.4452 10.032,3.8001 12,5.3908 1.9223,1.5535 5.2951,3.8816 7.4951,5.1734 2.2,1.2918 5.125,3.3631 6.5,4.6028 3.15,2.85 21.68,12.43 24.02,12.43 0.96272,0 4.3892,1.7602 7.6144,3.9115 3.2252,2.1513 7.889,4.7009 10.364,5.6657 2.475,0.9648 5.6945,2.5796 7.1544,3.5885 1.4599,1.0089 3.2824,1.8343 4.05,1.8343 0.7676,0 1.8231,0.41638 2.3456,0.92528 0.5225,0.50891 5.675,2.694 11.45,4.8558 5.775,2.1618 12.975,5.1855 16,6.7193 6.5053,3.2985 26.599,9.9704 33,10.957 2.475,0.38152 8.0551,1.3891 12.4,2.2392 12.013,2.35 50.832,1.2638 62.508,-1.7491 9.6781,-2.4974 11.425,-2.2195 22.235,3.5356 7.2729,3.8722 12.375,9.1314 20.605,21.239 24.799,36.483 29.03,41.206 42.821,47.792 14.186,6.7751 32.597,8.992 44.931,5.4106 z m -26.5,-3.3661 c -15.284,-2.3882 -35,-12.967 -35,-18.78 0,-0.71887 -2.612,-4.2258 -5.8044,-7.7932 -3.1924,-3.5674 -9.355,-11.886 -13.695,-18.486 -9.4426,-14.361 -19.777,-27.136 -22.705,-28.065 -9.61,-3.05 -11.44,-7.44 -3.11,-7.44 8.81,0 44.31,38.36 44.31,47.89 0,1.6464 7.998,11.365 11.5,13.974 31.596,23.539 66.051,18.022 78.439,-12.56 l 2.756,-6.8 4.4025,0 4.4025,0 -0.23201,3.8529 c -0.966,16.04 -34.548,38.77 -53.268,36.06 -1.375,-0.1994 -6.775,-1.0305 -12,-1.847 z m 1.12,-27.62 c -8.0863,-15.071 -16.156,-42.559 -13.056,-44.475 1.9782,-1.2226 4.8391,2.6764 5.4322,7.4031 1.4452,11.517 14.831,43.839 21.254,51.322 0.79648,0.92784 1.132,2.1985 0.74563,2.8237 -1.1042,1.7867 -9.7939,-8.5335 -14.376,-17.074 z m -0.65628,14.313 c -8.93,-9.39 -21.46,-42.81 -21.46,-57.24 0,-9.4079 3.3391,-7.5622 4.5008,2.4879 0.81806,7.077 8.6683,31.193 12.102,37.178 1.3184,2.2979 2.3971,4.6517 2.3971,5.2306 0,1.3147 6.615,11.735 7.9884,12.584 1.5479,0.95667 1.2026,3.5072 -0.47492,3.5072 -0.8176,0 -3.0912,-1.6875 -5.0525,-3.75 z m 17.179,-3.0746 c -1.3906,-2.0214 -3.0053,-4.9469 -3.5883,-6.501 -0.58294,-1.5541 -2.3855,-4.7524 -4.0057,-7.1073 -4.09,-5.94 -12.05,-26.55 -12.05,-31.19 0,-6.3583 3.8777,-3.4544 6.8317,5.1161 4.451,12.914 6.3852,18.04 7.1683,19 0.44879,0.55 1.7567,3.6824 2.9064,6.9609 1.1497,3.2785 3.6821,8.3581 5.6275,11.288 3.4417,5.1836 3.8298,7.7116 1.0183,6.6327 -0.76104,-0.29203 -2.5215,-2.1849 -3.9121,-4.2063 z m 10.36,2 c 0,-0.45067 -1.7835,-3.2098 -3.9633,-6.1314 -2.1798,-2.9216 -4.7104,-7.6154 -5.6236,-10.431 -0.91321,-2.8152 -2.4738,-6.6936 -3.4681,-8.6186 -3.4788,-6.7355 -5.3491,-14.132 -3.8143,-15.084 1.8292,-1.1352 4.1355,1.5075 5.7461,6.5843 2.9988,9.4523 7.7921,20.419 11.323,25.905 4.288,6.67 4.693,8.6 1.8,8.6 -1.1,0 -2,-0.36873 -2,-0.81939 z m 6.854,-4.93 c -5.054,-6.07 -12.854,-22.07 -12.854,-26.36 0,-4.621 3.3011,-1.1257 6.5495,6.9347 1.8451,4.5784 4.9513,10.73 6.9026,13.669 4.4926,6.7684 4.0211,11.309 -0.59787,5.7562 z m -56.952,-5.536 c -7.0188,-5.9815 -14.543,-27.03 -17.406,-48.694 -1.1238,-8.503 -1.147,-10.766 -0.12075,-11.806 1.5863,-1.6077 4.5993,-0.55393 4.6998,1.6437 0.0413,0.90365 0.18348,4.1411 0.31596,7.1943 0.46987,10.829 6.3223,30.996 13.229,45.588 4.4488,9.3984 4.3328,10.379 -0.71846,6.0746 z m 59.682,-4.01 c -4.429,-5.81 -7.542,-14.7 -5.149,-14.7 0.862,0 1.567,0.53 1.567,1.19 0,0.65205 0.85705,2.1146 1.9046,3.25 2.9023,3.146 7.2625,11.485 6.5813,12.587 -1.041,1.6844 -2.3004,1.0869 -4.904,-2.3267 z m -53.922,-0.45 c -7.2257,-11.46 -16.288,-42.844 -14.054,-48.668 0.83438,-2.1744 4.3849,-2.0394 4.4239,0.16821 0.17108,9.6971 6.6658,35.6 11.414,45.52 2.1341,4.4592 2.4746,6.73 1.0091,6.73 -0.23564,0 -1.4924,-1.6875 -2.7929,-3.75 z m 59.731,-7 c -1.7249,-2.2722 -1.7246,-3.25 9.6e-4,-3.25 0.76616,0 1.6662,0.7118 2,1.5818 1.3816,3.6004 0.20828,4.5785 -2.001,1.6682 z m 0.609,-8.3 c -18.446,-6.1518 -26.899,-10.401 -34.962,-17.575 -5.7114,-5.0818 -20.17,-14.523 -29.921,-19.539 -5.7109,-2.9373 -12.236,-6.3197 -14.5,-7.5165 -2.2641,-1.1968 -6.4781,-2.9259 -9.3646,-3.8425 -6.3911,-2.0294 -7.3064,-3.2594 -4.161,-5.5919 1.325,-0.98257 3.3066,-2.5972 4.4035,-3.588 5.7268,-5.1732 17.808,-10.5 27.215,-11.999 3.0601,-0.48782 3.3374,-0.25078 5.9583,5.093 1.5118,3.0826 3.3825,5.6047 4.1571,5.6047 1.427,0 1.3788,-0.46429 -0.67346,-6.5 -5.0857,-14.957 -5.5046,-42.309 -0.76581,-50 0.67774,-1.1 2.0046,-4.0697 2.9485,-6.5993 0.9439,-2.5296 2.8299,-5.6456 4.191,-6.9243 1.3612,-1.2787 2.4751,-3.034 2.4753,-3.9007 2.8e-4,-0.86663 0.95144,-4.0507 2.1137,-7.0757 7.931,-20.642 -2.0605,-38.981 -22.614,-41.507 -6.66,-0.81855 -13.5,-3.3419 -13.5,-4.9802 0,-5.6249 27.789,-12.17 38.478,-9.0621 2.9313,0.85216 6.201,1.5494 7.2661,1.5494 15.239,0 31.075,26.524 25.873,43.337 -0.80139,2.5901 -0.67822,2.8074 1.4172,2.5 1.6585,-0.24327 2.5958,-1.3561 3.3801,-4.0129 1.4866,-5.0359 7.9678,-12.465 12.05,-13.812 3.2345,-1.0675 5.044,-3.1695 3.7996,-4.4138 -1.5592,-1.5592 -5.6245,-0.26725 -9.1328,2.9022 -4.2806,3.8673 -6.1489,4.4034 -6.0984,1.75 0.065,-3.42 7.952,-10.26 11.812,-10.26 1.12,0 2.297,-0.42 2.614,-0.93 0.548,-0.89 2.38,-1.47 19.041,-6.01 35.366,-9.63 42.649,-0.92 43.865,52.44 0.3839,16.83 1.2325,25.01 4.3051,41.5 5.0901,27.322 -0.98718,51.648 -17.238,69 -2.3179,2.475 -5.2759,5.7221 -6.5733,7.2158 -2.53,2.91 -14.111,9.78 -16.49,9.78 -0.79151,0 -2.5596,0.73414 -3.929,1.6314 -5.2521,3.4413 -28.613,4.2669 -37.44,1.3232 z m 17.006,-15.88 c 9.98,-3.04 16.994,-11.79 16.994,-21.2 0,-1.58 0.85,-3.66 1.89,-4.62 1.039,-0.96 3.402,-3.17 5.251,-4.9 3.796,-3.55 10.897,-16.68 10.874,-20.1 -0.0241,-3.6063 -2.7409,-2.6112 -4.0954,1.5 -0.6795,2.0625 -1.994,4.875 -2.9211,6.25 -0.92711,1.375 -2.919,4.3789 -4.4264,6.6754 -3.2215,4.9078 -4.7152,5.6722 -8.084,4.1373 -3.4015,-1.5498 -3.127,-3.088 1.1306,-6.3354 5.813,-4.44 11.992,-19.98 7.941,-19.98 -0.51699,0 -1.9034,2.4871 -3.0808,5.527 -4.0344,10.416 -9.2546,15.366 -13.865,13.149 -15.72,-7.5594 -27.466,-5.0726 -35.601,7.5374 l -2.718,4.2131 1.7041,9.0697 c 3.0998,16.498 13.97,23.644 29.007,19.07 z m 1.4869,-9.4321 c -0.004,-1.0086 -1.3018,-2.8665 -2.8848,-4.1287 -2.2975,-1.832 -2.7486,-2.8107 -2.2364,-4.8517 0.52886,-2.1071 0.025,-3.0489 -2.8652,-5.355 -1.9288,-1.539 -3.5069,-3.5369 -3.507,-4.4398 -2e-5,-0.90288 -1.0713,-1.9105 -2.3805,-2.2391 -1.3093,-0.32861 -2.626,-1.5361 -2.9259,-2.6832 -0.4623,-1.7678 -0.86181,-1.9164 -2.6211,-0.97487 -3.7189,1.9903 -6.7673,12.873 -4.0724,14.539 0.55,0.33992 1.01,1.604 1.0222,2.809 0.012,1.19 0.902,3.3 1.978,4.68 3.6865,4.7129 1.2973,7.1826 -2.6603,2.75 -4.797,-5.3726 -4.836,-17.738 -0.0771,-24.427 11.789,-16.571 42.152,0.80997 33.152,18.977 -3.0767,6.2101 -9.9046,9.881 -9.9211,5.3339 z m -13.307,-5.8065 c 0.39185,-3.9677 2.3585,-4.7756 3.2246,-1.3246 0.75597,3.012 0.0842,4.4976 -2.0336,4.4976 -1.0889,0 -1.4178,-0.87628 -1.191,-3.173 z m 0.236,-115.49 c 1.5214,-1.9067 3.8606,-3.9654 5.1982,-4.5748 2.6257,-1.1964 2.6918,-3.0739 0.12572,-3.5717 -1.68,-0.32 -10.746,7.72 -10.746,9.53 0,2.5437 2.8731,1.8107 5.4216,-1.3833 z m -93.402,135.91 c -2.9949,-7.6376 -5.1736,-30.921 -3.0181,-32.253 2.3246,-1.4367 2.6621,-0.46525 3.3763,9.7176 0.3775,5.3819 1.5093,13.71 2.5151,18.506 1.0058,4.7965 1.5906,8.959 1.2996,9.25 -1.2309,1.231 -2.0399,0.21879 -4.173,-5.2208 z m -10.575,-17.75 c -0.37115,-2.475 -0.32971,-6.6375 0.0921,-9.25 l 0.76691,-4.75 0.77451,3.5 c 1.9306,8.7246 2.1725,15 0.57822,15 -1.0549,0 -1.7486,-1.4114 -2.2117,-4.5 z m -69.685,-3.071 c -0.31408,-0.31407 2.6632,-3.8016 6.6161,-7.75 8.8797,-8.8696 12.109,-13.26 10.488,-14.261 -0.69352,-0.42862 -2.0233,0.45199 -3.2681,2.1642 -6.723,9.2475 -19.337,19.015 -25.942,20.086 -5.7945,0.94032 -4.6356,-1.2794 5.8404,-11.187 7.92,-7.48 11.51,-12.48 8.98,-12.48 -0.28986,0 -4.483,3.9375 -9.3181,8.75 -9.1927,9.1497 -17.114,14.088 -23.287,14.516 -4.9379,0.34273 -4.7472,-1.333 0.57788,-5.0789 11.91,-8.38 21.89,-20.19 17.06,-20.19 -0.825,0 -1.5,0.39439 -1.5,0.87643 0,1.7421 -14.197,14.672 -18.298,16.666 -2.311,1.1233 -6.0636,3.0902 -8.3392,4.3709 -3.3027,1.8588 -4.7023,2.1402 -6.9375,1.3952 -4.3983,-1.4661 -3.9263,-2.8284 1.9815,-5.7188 7.14,-3.5 22.58,-19.59 18.79,-19.59 -0.43812,0 -3.9368,3.0375 -7.7748,6.75 -10.436,10.095 -25.936,17.19 -31.291,14.323 -3.4969,-1.8715 -2.3432,-3.047 8.0893,-8.2417 5.0413,-2.5103 18.768,-16.02 16.774,-16.508 -0.825,-0.2018 -4.3666,2.364 -7.8703,5.7018 -6.805,6.4828 -19.567,13.381 -26.936,14.559 -5.1818,0.8286 -6.3708,-1.0315 -2.1378,-3.3443 13.432,-7.339 25.36,-16.907 24.755,-19.859 -0.34071,-1.6626 -0.73122,-1.5199 -3.3488,1.2233 -7.414,7.7699 -23.174,16.218 -31.029,16.634 -6.9965,0.37 -6.4619,-1.7972 1.4581,-5.9109 11.63,-6.04 23.75,-17.33 18.61,-17.33 -0.825,0 -1.5,0.42796 -1.5,0.95102 0,3.4373 -21.011,15.328 -29.275,16.567 -7.1504,1.0723 -13.421,-1.3977 -7.9754,-3.1418 8.6691,-2.7767 28.233,-14.985 28.246,-17.627 0.009,-1.7934 -3.851,-0.51109 -6.3671,2.1152 -6.2666,6.5409 -29.763,15.401 -32.796,12.368 -0.88971,-0.88971 -0.71138,-1.3133 0.74993,-1.7814 7.15,-2.29 22.42,-12.77 22.42,-15.39 0,-1.777 -2.5734,-1.1936 -4.595,1.0418 -1.0478,1.1585 -3.705,3.0204 -5.905,4.1374 -2.2,1.1171 -5.024,2.8305 -6.2754,3.8075 -2.7383,2.1378 -15.233,4.4143 -19.016,3.4647 -3.03,-0.75 -0.8,-3.51 2.84,-3.51 3.42,0 20.95,-10.1 20.95,-12.07 0,-1.6993 -1.9693,-0.97642 -9.9117,3.6384 -6.7615,3.9287 -8.9693,4.6818 -15.727,5.3644 -10.786,1.0896 -12.801,-0.91129 -3.8613,-3.8343 2.2,-0.71931 6.6594,-2.6112 9.9097,-4.2041 3.25,-1.59 6.46,-2.89 7.14,-2.89 1.18,0 2.45,-2.12 2.45,-4.08 0,-1.7067 -2.9079,-0.93255 -7.5462,2.009 -7.0568,4.4753 -25.584,9.3466 -28.558,7.5086 -1.5993,-0.98844 0.95423,-2.4016 4.3738,-2.4205 3.15,-0.02 20.73,-8.52 20.73,-10.03 0,-1.6584 -2.4597,-1.133 -10.146,2.1673 -4.4179,1.8968 -9.695,3.3319 -13.218,3.5946 -7.5769,0.565 -7.2382,-1.1835 0.75181,-3.8809 6.94,-2.34 10.61,-4.59 10.61,-6.49 0,-1.7718 -1.9702,-1.7224 -4.3906,0.10989 -2.8986,2.1943 -16.529,4.9852 -17.858,3.6564 -0.78097,-0.78097 -0.68792,-1.2135 0.33149,-1.5409 0.77947,-0.25035 3.8118,-1.2119 6.7385,-2.1368 5.2094,-1.6463 7.3231,-3.732 5.5615,-5.4878 -0.50852,-0.50683 -3.8505,0.1396 -7.8828,1.5248 -7.3732,2.5328 -12.5,3.1516 -12.5,1.5086 0,-0.53952 1.2375,-1.2888 2.75,-1.6652 3.0542,-0.75991 13.25,-8.0743 13.25,-9.5054 0,-1.9272 -3.2014,-2.0127 -5.3009,-0.14151 -2.8204,2.5138 -13.147,7.293 -15.758,7.293 -2.9531,0 -3.6046,-2.8471 -1.0594,-4.6298 3.4813,-2.4384 6.3854,-8.9034 4.6474,-10.346 -1.1424,-0.94809 -1.8992,-0.39875 -3.97,2.8817 -2.7414,4.3426 -11.434,10.068 -15.309,10.085 -2.3305,0.01 -3.0179,-1.398 -1.2239,-2.5067 2.5,-1.54 10.98,-12.77 10.98,-14.53 0,-2.5836 -2.6385,-2.4921 -4.0474,0.14039 -3.8754,7.2412 -10.75,12.309 -18.216,13.428 -6.2101,0.93126 -6.1552,-0.50109 0.194,-5.0625 5.6199,-4.0375 10.52,-11.46 9.5603,-14.482 -1.0288,-3.2415 -2.8514,-2.188 -5.32,3.0752 -2.9996,6.3951 -9.2835,10.953 -15.101,10.953 -4.4209,0 -5.5032,-1.6022 -1.7231,-2.5509 3.78,-0.94873 9.6693,-8.7604 9.93,-13.172 0.27411,-4.6374 -2.2296,-5.2854 -3.4072,-0.88191 -1.5879,5.9375 -9.0692,11.604 -15.32,11.604 -4.8076,0 -4.4648,-1.3223 1.3257,-5.1131 5.3,-3.48 10.12,-9.94 10.12,-13.59 0,-3.6674 -2.3246,-2.6696 -4.5434,1.9502 -2.4783,5.1601 -11.245,11.532 -16.457,11.961 -4.9285,0.40626 -5.1933,-1.2511 -0.58511,-3.6627 4.2717,-2.2355 10.943,-11.454 10.385,-14.35 -0.58967,-3.0619 -3.0707,-1.7807 -4.4562,2.3012 -2.2684,6.6834 -9.7932,11.5 -17.966,11.5 -5.39,0 -5.6874,-1.6357 -0.8655,-4.7592 6.9008,-4.4702 4.451,-6.5139 -3.0812,-2.5704 -8.1147,4.2486 -10.142,1.763 -5.7185,-7.0107 2.8968,-5.7454 0.61003,-6.0882 -4.8383,-0.7251 -3.2018,3.1517 -6.5044,5.3909 -8.7574,5.9377 -12.422,3.0147 -15.219,3.4256 -16.257,2.3878 -0.76649,-0.76649 -0.39855,-1.4228 1.2825,-2.2875 2.81,-1.44 8.86,-7.02 8.86,-8.17 0,-1.6371 -3.7522,-0.73362 -5.595,1.3472 -2.7023,3.0514 -12.947,7.4856 -19.275,8.3424 -6.9277,0.93814 -6.5937,-0.5124 1.3775,-5.9808 10.336,-7.0909 7.874,-9.1874 -2.8748,-2.4478 -7.8862,4.9446 -22.589,7.9103 -20.221,4.0786 0.33638,-0.54428 2.0689,-1.3061 3.8501,-1.6929 1.7812,-0.38682 5.0385,-2.0832 7.2385,-3.7698 2.2,-1.6866 4.195,-3.2122 4.4333,-3.3903 2.62,-1.9576 -2.4675,-1.8519 -6.0099,0.1249 -5.1571,2.8779 -13.034,4.8734 -14.288,3.6197 -0.48651,-0.48646 0.42036,-1.5295 2.0728,-2.384 7.2485,-3.7483 6.6869,-6.7283 -0.81161,-4.3065 -5.9654,1.9266 -18.273,2.2866 -17.684,0.5172 0.56709,-1.7013 8.7676,-4.742 12.96,-4.8058 9.8085,-0.14919 17.05,-19.843 12.379,-33.668 -1.2296,-3.6395 50.943,-7.4966 58.585,-4.3312 1.8464,0.76482 4.2602,1.2722 5.3638,1.1276 1.1037,-0.14463 10.105,2.3836 20.003,5.6184 l 17.996,5.8814 12,-0.26559 c 15.184,-0.33606 26.45,-1.2137 38.5,-2.9991 15.768,-2.3364 30.665,-1.0844 37.5,3.1516 2.0457,1.2678 13.854,1.4087 15.082,0.17988 0.36655,-0.36655 -0.51454,-2.07 -1.958,-3.7854 -1.8566,-2.2065 -2.6244,-4.2668 -2.6244,-7.0422 0,-4.0232 1.575,-5.2987 2.6834,-2.1733 1.7511,4.9378 6.3166,7.0098 6.3166,2.8666 0,-1.5908 0.70826,-2.5686 2.1299,-2.9403 1.6064,-0.4201 1.9397,-1.0017 1.3559,-2.3666 -0.42571,-0.99532 -0.82165,-3.1597 -0.87988,-4.8097 -0.17514,-4.9629 -2.9965,-3.8208 -3.7057,1.5 -0.32989,2.475 -0.66739,3.513 -0.75,2.3067 -0.55706,-8.1348 -14.031,-3.258 -17.156,6.2094 -0.63239,1.9162 -1.6774,3.5357 -2.3222,3.5991 -10.404,1.0219 -11.644,-9.1303 -2.0553,-16.823 2.2053,-1.7691 3.4106,-3.4383 2.9828,-4.1306 -1.0672,-1.7268 -1.9478,-1.4614 -6.0999,1.8383 -4.6003,3.6558 -6.1102,3.6962 -16.122,0.43077 -18.475,-6.0255 -20.426,-10.06 -7.3776,-15.254 15.299,-6.0894 17.43,-7.2807 23.5,-13.138 3.3,-3.1841 6.8082,-6.2124 7.796,-6.7294 0.9878,-0.51709 5.9378,-4.852 11,-9.6331 14.74,-13.93 23.94,-21.68 25.73,-21.68 0.91636,0 3.4211,-1.2543 5.5662,-2.7872 8.69,-6.21 15.4,-8.99 15.4,-6.37 0,0.81691 9.992,7.5596 15,10.122 1.375,0.70356 3.85,2.507 5.5,4.0078 5.2781,4.8005 17.326,11.53 45,25.135 28.397,13.961 39.429,20.302 48.5,27.88 3.025,2.5269 6.4551,5.2518 7.6224,6.0554 1.1673,0.80358 4.7208,3.4861 7.8966,5.9611 3.1758,2.475 9.4569,7.2 13.958,10.5 11.142,8.1693 19.336,17.529 24.538,28.029 2.5417,5.1308 4.6238,8.2324 5.164,7.6922 1.1848,-1.1848 -1.4538,-8.9044 -5.2368,-15.32 -5.3134,-9.0116 -2.0601,-9.6319 4.7096,-0.89802 8.7938,11.345 16.057,44.616 10.002,45.815 -1.4636,0.28976 -1.7114,-0.0604 -1.1946,-1.6886 0.73287,-2.3091 -1.3,-7.0082 -2.3163,-5.3543 -0.35338,0.57508 -0.64251,13.24 -0.64251,28.145 0,26.243 -0.0632,27.118 -2,27.669 -1.1,0.3132 -3.488,1.2419 -5.3066,2.0637 -1.8186,0.82185 -6.1791,2.5362 -9.6898,3.8096 -3.5108,1.2734 -7.7173,3.2652 -9.3478,4.4262 -1.6305,1.161 -3.2303,2.1109 -3.5552,2.1109 -0.32485,0 -4.2147,2.8125 -8.6442,6.25 -16.227,12.593 -19.628,13.235 -14.899,2.8125 1.93,-4.23 1.99,-7.06 0.17,-7.06 -0.46606,0 -1.833,2.378 -3.0377,5.2846 -2.4676,5.9535 -9.5268,14.264 -12.928,15.218 -2.6572,0.74604 -3.1344,-1.5242 -0.73836,-3.5127 1.67,-1.39 5.48,-9.46 5.48,-11.62 0,-2.7464 -1.7446,-1.2581 -4.5349,3.8686 -5.2438,9.6346 -17.791,19.833 -20.754,16.869 -1.1386,-1.1386 -0.97471,-1.3933 6.6176,-10.289 4.6557,-5.4548 5.6387,-8.668 2.9278,-9.5706 -0.68411,-0.22778 -1.7169,0.83007 -2.2951,2.3508 -3.9026,10.265 -23.078,24.948 -27.199,20.827 z m -244.8,-127.32 c 1.55,-3.75 1.01,-8.61 -0.96,-8.61 -1.0392,0 -1.5136,1.0752 -1.5443,3.5 -0.0244,1.925 -0.39218,4.5125 -0.81739,5.75 -1.1907,3.4654 1.8604,2.8744 3.3172,-0.64251 z m -46.318,116.11 c -1.07,-1.72 3.21,-11.72 5.01,-11.72 2.1937,0 4.4575,4.1211 4.1071,7.4768 -0.35804,3.4296 -7.555,6.7795 -9.1212,4.2455 z m -9.75,-5.22 c -1.21,-2.21 -5.89,-12.98 -5.89,-13.55 0,-0.26963 -1.125,-2.2724 -2.5,-4.4505 -4.1752,-6.6139 -1.4998,-12 5.9605,-12 9.5926,0 15.595,22.801 8.0018,30.395 -1.9573,1.9573 -4.3757,1.7858 -5.5686,-0.39477 z m -24.646,-2.7523 c -5.95,-5.96 -3.72,-29.25 2.81,-29.25 2.7746,0 3.4244,2.3491 1.4734,5.3266 -1.8102,2.7628 -0.76302,4.2022 2.3406,3.2171 5.7518,-1.8256 10.092,16.456 4.3877,18.483 -1.5125,0.53742 -3.875,1.6393 -5.25,2.4486 -3.2166,1.8933 -3.6485,1.8762 -5.7523,-0.22757 z m 41.559,-7.2185 c -2.7135,-1.617 -3.8978,-3.5467 -6.5972,-10.75 -4.8,-12.83 -10.1,-16.41 -18.2,-12.28 -6.3334,3.2311 -8.604,2.3434 -8.1817,-3.1988 0.16484,-2.1633 -0.30682,-2.8857 -2.1933,-3.3592 -4.834,-1.2133 -12.317,-22.662 -12.786,-36.649 -0.31382,-9.3541 -0.20709,-9.4793 6.3888,-7.4956 5.0089,1.5065 8.8199,2.3069 22.028,4.6266 6.5482,1.15 12.264,4.5962 14.376,8.6671 2.4489,4.7203 0.98491,5.8451 -3.6314,2.7901 -2.2226,-1.4708 -4.3125,-2.4028 -4.6442,-2.071 -1.1905,1.1905 0.61707,3.6475 4.4751,6.0829 3.3717,2.1285 8.1688,7.986 8.1688,9.9746 0,1.3709 -2.7884,0.52321 -4.5,-1.368 -1.6514,-1.8248 -5.5,-2.8142 -5.5,-1.414 0,0.32233 2.475,2.9265 5.5,5.7871 6.326,5.9821 6.7432,7.377 2.3372,7.8135 l -3.1628,0.31336 5.3025,4 c 7.1458,5.3905 13.147,16.676 6.2252,11.707 -6.0131,-4.3168 -9.7294,-3.8157 -4.5946,0.61957 6.1951,5.3512 9.2478,13.342 3.5458,9.2822 -5.6175,-4 -7.2378,-1.5701 -2.1532,3.2289 5.1644,4.8744 3.7599,7.2385 -2.1928,3.6912 z m -48.44,-23.514 c -0.74086,-1.9306 2.8183,-8.0154 4.6885,-8.0154 2.1069,0 2.3309,3.9798 0.39074,6.9409 -1.8655,2.8471 -4.2088,3.3429 -5.0792,1.0746 z m -2.5851,-12.585 c 0.2801,-3.3246 1.794,-5.1901 3.7176,-4.581 1.7274,0.54692 1.691,3.4297 -0.0773,6.1285 -2.2317,3.406 -3.9945,2.6566 -3.6403,-1.5475 z m -1.27,-12.77 c 0,-3.2554 1.9511,-3.0942 2.3269,0.19231 0.23184,2.0274 -0.059,2.7303 -1,2.4167 -0.72982,-0.24328 -1.3269,-1.4173 -1.3269,-2.609 z m -167.440002,1.275 c -1.1657,-1.1875 0.29658,-3.0868 5.1911,-6.7425 6.3457,-4.7396 3.1925,-7.5812 -3.4989,-3.1531 -5.063,3.3505 -5.8952,2.4355 -2.0764,-2.2829 2.6941,-3.3286 3.7564,-3.8478 9.9212,-4.8481 9.3544,-1.5179 12.596,-3.1118 26.344,-12.954 6.5,-4.65 12.12,-8.46 12.49,-8.46 0.37138,0 3.238,-1.7206 6.3704,-3.8235 9.238802,-6.2026 16.772002,-10.176 19.317002,-10.187 9.9794,-0.0454 36.393,-12.86 50.088,-24.3 5.409,-4.5184 8.2128,-4.5167 6.7533,0.004 -0.4983,1.5436 -1.1393,3.9919 -1.4245,5.4408 -0.417,2.1187 -1.9871,3.3317 -8.0226,6.1979 -4.1273,1.96 -9.4193,4.8576 -11.76,6.4391 -2.3407,1.5814 -8.7177,5.2387 -14.171,8.1272 -5.4534,2.8885 -11.346,6.343 -13.094,7.6767 -1.7486,1.3337 -3.4517,2.4249 -3.7847,2.4249 -0.33301,0 -2.5405,1.301 -4.9056,2.8911 -2.3651,1.5901 -5.8751,3.6147 -7.8001,4.4991 -12.141002,5.5781 -38.111002,23.598 -43.518002,30.197 l -3.8039,4.6422 -8.8475,-0.42301 c -4.8661,-0.23265 -9.2634,-0.84673 -9.7718,-1.3646 z m -6.183,-25.054 c -2.6821,-2.4273 -2.4633,-4.7784 0.37403,-4.018 1.2375,0.33164 3.2304,0.60913 4.4286,0.61664 2.812,0.0176 5.4082,2.6241 4.631,4.6494 -0.77084,2.0088 -6.7019,1.2241 -9.4336,-1.248 z m 12.62,-1.8 c 0,-1.1536 1.3906,-2.6801 3.5,-3.8422 4.8768,-2.6866 9,-6.7781 9,-8.9309 0,-2.8153 -2.88,-2.154 -7.058,1.6205 -5.4132,4.8906 -13.944,6.8546 -13.941,3.2096 5.6e-4,-0.62865 3.2001,-3.843 7.11,-7.143 3.91,-3.3 8.972,-7.637 11.249,-9.6379 11.387,-10.006 18.859,-12.208 25.145,-7.41 2.4874,1.8987 7.2163,4.208 10.509,5.1318 6.9849,1.9599 7.3776,3.1797 2.1823,6.78 -4.2663,2.9566 -6.1962,3.3288 -6.1962,1.195 0,-2.2873 -1.9705,-2.8957 -3.855,-1.1902 -0.95094,0.86059 -3.0286,1.4672 -4.6171,1.348 -2.8925,-0.21707 -4.406,1.467 -5.9939,6.6694 -0.54146,1.7739 -0.68638,1.786 -2.436,0.20257 -2.0782,-1.8807 -5.098,-0.0845 -5.098,3.0324 0,0.81303 -0.68656,2.8059 -1.5257,4.4286 -1.599,3.0922 -4.4743,4.0242 -4.4743,1.4503 0,-2.8686 -3.7738,-1.5486 -5.9064,2.0659 -2.4087,4.0824 -7.5936,4.7789 -7.5936,1.02 z m 615.570002,-12.62 c -7.1124,-21.964 -7.2476,-22.675 -3.9755,-20.924 3.3705,1.8038 7.1096,11.455 7.6824,19.83 0.61205,8.9482 -1.0085,9.4263 -3.7069,1.0935 z m -461.02,-15.016 c -14.633,-5.6431 -19.826,-16.23 -13.632,-27.79 0.78617,-1.4671 1.6538,-3.3982 1.928,-4.2913 0.61996,-2.019 6.4104,-3.1878 11.408,-2.303 8.1378,1.4408 14.194,3.3636 16.071,5.1027 1.083,1.0032 3.1413,2.8024 4.574,3.9983 4.612,3.8495 3.2666,20.482 -2.1496,26.576 -2.3788,2.6764 -9.156,2.195 -18.2,-1.2927 z m -20.078,-2.474 c -5.4411,-2.8137 -8.8515,-14.948 -5.8455,-20.799 1.6499,-3.2114 6.0533,-7.6843 7.5649,-7.6843 1.5373,0 1.7697,2.5996 0.31291,3.5 -0.55,0.33992 -1,1.9122 -1,3.4939 0,1.5817 -0.47032,4.1129 -1.0452,5.6248 -1.1638,3.0612 -0.23038,6.2141 3.7338,12.611 3.3333,5.3792 2.2396,6.3354 -3.7209,3.2532 z m -90.148002,-2.6616 c -5.8,-2.62 -6.36,-4.82 -1.22,-4.82 9.7,0 26.310002,-19.37 22.210002,-25.92 -0.71,-1.15 -1.58,-2.08 -1.94,-2.08 -4.5401,0 3.9822,-9.9766 18.941,-22.173 2.9188,-2.3799 7.1938,-5.8444 9.5,-7.699 2.3061,-1.8546 10.643,-8.6046 18.526,-15 7.88,-6.4 15.08,-12.08 16.01,-12.63 1.5,-0.89 12.06,-9.23 16.25,-12.82 5.85,-5.03 24.99,-15.68 28.18,-15.68 0.89501,0 2.661,-0.41841 3.9243,-0.92979 1.2634,-0.51139 7.922,-2.3546 14.797,-4.096 6.875,-1.7414 14.3,-3.8027 16.5,-4.5807 3.6052,-1.2748 6.1033,-1.8879 16,-3.9262 1.65,-0.33985 3.9,-0.99821 5,-1.463 1.1,-0.46482 5.375,-1.9746 9.5,-3.3551 10.758,-3.6003 19.477,-6.9793 27.5,-10.657 3.85,-1.7649 7.9,-3.5732 9,-4.0183 1.1,-0.44513 6.275,-2.8361 11.5,-5.3133 5.225,-2.4772 10.85,-4.8177 12.5,-5.2011 1.65,-0.38341 4.09,-1.3798 5.4223,-2.2141 8.2211,-5.1485 27.519,-6.5186 38.854,-2.7586 11.453,3.7988 11.534,3.6769 -9.7766,14.709 -7.975,4.1284 -18.1,10.03 -22.5,13.115 -10.242,7.1797 -21.686,13.94 -32.771,19.357 -4.824,2.3576 -11.437,6.097 -14.695,8.3098 -3.2584,2.2127 -6.1163,4.0231 -6.351,4.0231 -0.23467,0 -4.6469,2.3866 -9.8049,5.3036 -5.158,2.917 -10.175,5.6063 -11.148,5.9762 -0.97344,0.36996 -4.386,2.4492 -7.5835,4.6206 -3.1975,2.1714 -10.051,6.267 -15.23,9.1014 -5.1791,2.8344 -12.508,6.9864 -16.287,9.2265 l -6.8701,4.073 -6.2452,-1.1507 c -8.16,-1.51 -9.5,-1.45 -9.5,0.37 0,0.89678 1.2444,1.7739 3.0208,2.1292 3.5244,0.70488 4.1686,1.4212 2.9913,3.3262 -0.72331,1.1703 -1.9357,1.1242 -7.8271,-0.29775 -9.7412,-2.3512 -14.255,-0.51104 -5.685,2.3174 3.2588,1.0755 4.5715,3.2197 2.685,4.3857 -0.44827,0.27705 -3.1338,-0.17599 -5.9677,-1.0068 -9.8092,-2.8755 -11.708,-1.9142 -13.66,6.9139 -0.78112,3.5342 -3.2194,4.538 -5.0582,2.0826 -1.3184,-1.7605 -1.4454,-1.6777 -2.0725,1.3521 -0.96884,4.6813 -2.951,6.0132 -5.5068,3.7002 -2.1348,-1.9319 -3.8668,-0.87433 -3.9049,2.3843 -0.0703,6.0259 -4.752,13.887 -7.616,12.788 -1.5598,-0.59855 -1.5499,-1.8681 0.0448,-5.7208 0.68,-1.62 -1.68,-4.87 -3.54,-4.87 -1.4055,0 -3.0065,4.8086 -3.4878,10.476 -0.44229,5.2075 -3.2309,9.375 -5.3831,8.0448 -0.64283,-0.39729 -1.0379,-2.2416 -0.87792,-4.0984 0.61177,-7.1008 -3.7132,-7.0017 -4.6136,0.1057 -1.3145,10.375 -4.5414,13.95 -4.5414,5.0314 0,-8.3549 -3.962,-7.0101 -4.7918,1.6264 -0.89672,9.3324 -6.8192,14.593 -7.4007,6.5732 -0.37838,-5.219 -3.3442,-6.6266 -4.372,-2.0751 -2.5656,11.361 -3.9354,13.092 -3.9354,4.974 0,-5.5131 -2.5059,-5.639 -4.2828,-0.21523 -2.143,6.5412 -5.3886,8.7434 -6.7172,4.5576 -0.97471,-3.071 -2.9716,-2.3969 -5.869,1.9814 -1.4491,2.1898 -3.6464,4.1973 -4.8829,4.4611 -1.2364,0.2638 -3.1481,0.66996 -4.2481,0.90257 -4.104002,0.86786 -5.982102,0.59999 -10.680002,-1.5233 z m 618.440002,-10.53 c -0.19966,-0.59898 1.0057,-1.7719 2.6786,-2.6064 3.8777,-1.9344 5.35,-0.14298 2.0672,2.5153 -2.3942,1.9387 -4.1188,1.9718 -4.7457,0.0911 z M 83.809168,302.96518 c -5.1323,-2.7467 -1.198,-8.6687 11.775,-17.724 7.734602,-5.399 14.018002,-1.227 8.984902,5.9652 -7.434902,10.623 -14.940002,14.874 -20.760002,11.759 z m 273.900002,-7.97 c -0.39591,-1.1394 4.7726,-8.9852 5.9237,-8.9923 2.045,-0.0126 1.4279,3.0703 -1.3412,6.7008 -2.2777,2.9862 -4.0356,3.8653 -4.5825,2.2915 z m 62.17,-1.94 c 0,-1.0675 0.45,-2.2191 1,-2.559 0.55,-0.33992 1,-0.17828 1,0.3592 0,0.53747 0.27314,1.689 0.60699,2.559 0.39831,1.038 0.0545,1.5818 -1,1.5818 -0.92404,0 -1.607,-0.8249 -1.607,-1.941 z m -52.293,1.3142 c -0.82572,-0.82572 1.5884,-5.4252 3.9868,-7.5957 1.8358,-1.6614 1.8852,-1.5956 1.5048,2.0024 -0.46328,4.3815 -3.5547,7.5302 -5.4915,5.5933 z m -25.111,-3.2893 c 1.0472,-0.87115 3.1139,-3.0481 4.5926,-4.8377 3.9938,-4.8333 4.1865,-2.4357 0.24119,3.0008 -2.4691,3.4024 -3.8684,4.522 -5.0736,4.0595 -1.5097,-0.57934 -1.4875,-0.78566 0.23979,-2.2225 z m 39.4,-0.25 c 0,-1.1942 -0.71779,-2.9644 -1.5951,-3.9338 -1.7836,-1.9708 -4.2938,-8.4258 -4.361,-11.214 -0.10139,-4.2034 4.3907,-1.4453 5.5956,3.4356 0.62674,2.5388 1.9048,6.2287 2.8401,8.1997 1.77,3.73 1.42,5.68 -1.04,5.68 -0.81,0 -1.44,-0.95 -1.44,-2.17 z m -45.545,-3.0524 c 2.0263,-1.6702 4.8161,-4.8299 6.1996,-7.0215 1.797,-2.8466 2.823,-3.6771 3.5925,-2.9076 1.2351,1.2351 -3.6106,8.9902 -6.2122,9.9421 -0.8443,0.3089 -2.6247,1.714 -3.9563,3.1224 -1.7102,1.8088 -2.5514,2.1703 -2.8645,1.2311 -0.24378,-0.73136 1.2146,-2.6963 3.2409,-4.3665 z m 54.253,0.59733 c -5.9036,-5.7342 -6.3728,-11.198 -0.79445,-9.2539 2.1251,0.74081 3.4141,2.3106 4.9685,6.051 3.1994,7.6987 1.666,8.8754 -4.174,3.2029 z m -38.71,2.46 c 0,-1.55 4.85,-7.84 6.05,-7.84 1.6556,0 1.0317,2.203 -1.6018,5.6556 -2.581,3.3838 -4.4491,4.3029 -4.4491,2.1888 z m -43.5,-4.84 c 0.33992,-0.55 1.0717,-1 1.6262,-1 0.55447,0 2.4586,-1.4625 4.2314,-3.25 8.25,-8.32 12.64,-11.43 12.64,-8.95 0,1.3441 -10.58,10.927 -12.865,11.652 -1.1745,0.37276 -2.1354,1.0974 -2.1354,1.6104 0,0.51293 -0.92656,0.93261 -2.059,0.93261 -1.1325,0 -1.7809,-0.45 -1.441,-1 z m -11.5,-1.4326 c 0,-0.78794 0.81591,-1.6916 1.8131,-2.0081 0.99722,-0.3165 5.2636,-3.9815 9.4808,-8.1444 4.6682,-4.6081 8.3274,-7.441 9.354,-7.2419 5.7262,1.1104 -0.95164,8.3443 -16.172,17.518 -2.7133,1.6354 -4.4763,1.5867 -4.4763,-0.1238 z m 35.03,-0.32 c 0.0701,-1.7618 7.9114,-9.6964 7.9403,-8.0348 0.0164,0.94337 -1.3668,3.3059 -3.0738,5.25 -2.9208,3.3267 -4.934,4.4786 -4.8666,2.7848 z m -10.007,0 c 0.0126,-0.4125 2.5017,-3.1884 5.5313,-6.1687 7.3219,-7.2027 9.543,-5.6386 2.4471,1.7232 -4.4348,4.601 -8.0447,6.6124 -7.9784,4.4454 z m 46.607,-5.6166 c -1.8456,-3.8893 -2.1653,-10.185 -0.56734,-11.172 2.0296,-1.2544 4.9184,2.6333 4.7797,6.4323 -0.0724,1.9836 0.20281,5.1087 0.61161,6.9447 0.99717,4.4783 -2.3865,2.9319 -4.824,-2.2046 z m -83.63,4.11 c 0,-0.69074 1.2375,-1.804 2.75,-2.4739 1.5125,-0.66989 6.125,-4.3732 10.25,-8.2296 7.7347,-7.231 9.6211,-8.1916 10.678,-5.4375 0.62943,1.6403 -9.0563,12.302 -11.234,12.366 -0.58065,0.017 -2.5806,1.1559 -4.4443,2.5309 -3.5968,2.6536 -8,3.3384 -8,1.2441 z m -37,-0.68181 c 0,-0.45081 1.3027,-1.3593 2.895,-2.0188 1.5922,-0.65952 3.7581,-2.0032 4.813,-2.9861 3.36,-3.13 6.29,-4.36 6.29,-2.64 0,1.3663 -7.4067,7.2414 -10.978,8.7081 -1.6726,0.68685 -3.0216,0.21245 -3.0216,-1.0626 z m -11.336,1.2688 c -0.76,-0.77 2.18,-4.33 3.59,-4.33 1.3648,0 5.926,-3.5928 14.282,-11.25 7.0977,-6.5038 9.6683,-7.8574 10.958,-5.7702 0.86323,1.3967 -7.0828,9.024 -12.988,12.467 -2.75,1.6033 -7.025,4.3976 -9.5,6.2096 -4.7948,3.5103 -5.2909,3.7198 -6.3355,2.6752 z m -6.76,-3.83 c -0.0567,-0.55 0.96565,-1.675 2.272,-2.5 1.30635,-0.825 3.7153,-2.7293 5.3532,-4.2318 10.13,-9.3 16.47,-13.12 16.47,-9.93 0,2.13 -13.8,13.16 -16.46,13.16 -0.44668,0 -1.8864,1.1591 -3.1993,2.5758 -2.3367,2.5213 -4.2397,2.9169 -4.4453,0.92417 z m -42.066,0.40935 c -1.9722,-1.0555 2.5335,-6.7189 5.4645,-6.8687 0.43734,-0.0224 4.0373,-2.2163 8,-4.8755 8.83,-5.93 27.13,-17.31 31.21,-19.42 15.64,-8.07 21.23,-11.12 22.58,-12.33 0.87,-0.78 1.8,-1.42 2.08,-1.42 0.87,0 15.93,-8.77 17.67,-10.29 2.22,-1.94 11.34,-6.71 12.84,-6.71 0.64968,0 2.4533,-1.0463 4.008,-2.3251 3.4671,-2.8518 10.069,-6.5817 26.26,-14.836 6.838,-3.4862 13.451,-7.3466 14.694,-8.5786 1.2798,-1.2675 2.9216,-1.9867 3.7817,-1.6566 0.83602,0.32082 2.843,-0.35872 4.4599,-1.5101 1.62,-1.15 3.23,-2.09 3.59,-2.09 0.35559,0 4.2168,-2.6849 8.5805,-5.9665 4.3637,-3.2816 9.4033,-6.7233 11.199,-7.6482 1.7958,-0.92493 4.6151,-2.6938 6.2651,-3.9308 1.65,-1.237 7.95,-4.6396 14,-7.5613 6.05,-2.9217 14.6,-7.473 19,-10.114 10.001,-6.0026 9.2572,-5.5373 16.188,-10.132 33.73,-22.37 49.46,-32.65 49.94,-32.65 0.31747,0 2.5775,-1.35 5.0224,-3 2.4448,-1.65 4.7159,-3 5.0468,-3 0.33088,0 4.0208,-1.9599 8.1999,-4.3553 12.7,-7.278 17.42,-9.89 21.6,-11.951 2.2,-1.084 6.55,-3.704 9.68,-5.821 12.34,-8.367 28.17,-17.402 45.82,-26.154 10.18,-5.045 18.72,-9.458 19,-9.806 0.87,-1.098 6.84,-3.913 8.3,-3.913 0.76987,0 10.097,-4.0674 20.727,-9.0388 10.63,-4.9713 19.96,-8.7961 20.733,-8.4995 2.1543,0.82669 0.94975,2.8092 -2.3234,3.8239 -3.9858,1.2356 -65.553,29.769 -67.438,31.253 -0.825,0.65014 -4.65,2.9062 -8.5,5.0135 -5.9577,3.261 -10.34,5.9113 -25.067,15.162 -1.0632,0.66783 -5.5332,3.086 -9.9332,5.3737 -4.4,2.2877 -9.125,4.9461 -10.5,5.9075 -1.375,0.96141 -4.75,2.8953 -7.5,4.2975 -5.7371,2.9253 -7.8388,4.4434 -14.905,10.766 -12.11,10.837 -18.554,14.893 -27.7,17.439 -3.6809,1.0243 -8.218,3.5238 -13.216,7.281 -4.1862,3.1466 -14.925,9.7712 -23.864,14.721 -8.9389,4.95 -16.957,9.675 -17.817,10.5 -1.8666,1.7894 -26.983,18.294 -35.498,23.327 -5.406,3.1952 -11.722,6.7845 -34,19.321 -3.85,2.1665 -10.375,6.2176 -14.5,9.0024 -4.125,2.7848 -9.525,6.0912 -12,7.3475 -2.475,1.2563 -7.0844,4.0355 -10.243,6.176 -3.1587,2.1405 -7.6587,4.7925 -10,5.8934 -2.3413,1.1008 -6.7246,3.7477 -9.7407,5.8819 -3.0161,2.1342 -5.8122,3.6774 -6.2135,3.4294 -0.40136,-0.24806 -1.686,0.50524 -2.8547,1.674 -1.1688,1.1688 -3.7727,2.8796 -5.7865,3.8018 -2.0138,0.92224 -6.3318,3.4048 -9.5954,5.5167 -3.2637,2.112 -7.0887,4.3468 -8.5,4.9662 -1.4113,0.61947 -7.8916,4.6221 -14.401,8.8948 -6.509,4.2726 -12.271,7.7684 -12.805,7.7684 -1.1037,0 -12.334,7.367 -15.361,10.076 -1.1,0.98475 -4.025,1.9668 -6.5,2.1823 -2.475,0.21551 -5.0921,0.47044 -5.8157,0.56653 -0.72366,0.0961 -2.2328,-0.31608 -3.3536,-0.91594 z m 77.17,-1.4 c 0,-0.8181 1.6875,-2.5724 3.75,-3.8984 2.0625,-1.326 5.9831,-4.7067 8.7124,-7.5126 4.8948,-5.032 8.5827,-6.4556 10.151,-3.9183 0.8691,1.4062 -5.2769,7.091 -13.87,12.829 -6.3377,4.2322 -8.7431,4.9199 -8.7431,2.4998 z m 94.408,-4.0787 c -1.5887,-3.8022 -0.91057,-6.6762 1.4679,-6.2215 1.129,0.21584 1.7918,1.7654 2.1739,5.0827 0.79547,6.9059 -0.99785,7.4666 -3.6418,1.1388 z m -73.91,-2.9 c 7.8024,-7.2563 13.5,-9.8813 13.5,-6.2197 0,3.3898 -14.399,13.428 -19.5,13.594 -1.4246,0.0465 0.30152,-2.0751 6,-7.3747 z m -63.5,5.2047 c 0,-0.69446 1.2164,-2.157 2.703,-3.25 1.4867,-1.093 4.1336,-3.2248 5.882,-4.7374 2.96,-2.55 6.42,-3.65 6.42,-2.04 0,1.0422 -6.2476,7.2976 -7.2884,7.2976 -0.49285,0 -2.0403,0.9 -3.4387,2 -2.9282,2.3034 -4.2729,2.5354 -4.2729,0.73735 z m 129.61,-4.31 c -0.95,-2.47 -0.73,-3.42 0.78,-3.42 1.5632,0 2.9142,2.6939 2.0512,4.0902 -0.86109,1.3933 -2.163,1.0849 -2.8372,-0.67203 z m -87.72,-1.17 c 2.1832,-3.9871 9.9575,-10.523 11.715,-9.8491 2.1303,0.81747 -6.4994,10.22 -10.018,10.915 -1.1466,0.22644 -2.2131,0.473 -2.37,0.5479 -0.15685,0.0749 0.14603,-0.65132 0.67306,-1.6138 z m 50.11,-9.59 c -5.775,-0.85889 -13.65,-2.2667 -17.5,-3.1285 -13.909,-3.1135 -20.197,-3.766 -31.75,-3.2949 -11.656,0.47522 -14.291,-0.23072 -9,-2.4107 1.5125,-0.62315 4.5518,-1.9501 6.7541,-2.9487 9.245,-4.1923 22.278,-3.3532 41.496,2.6716 7.8379,2.4571 23.681,4.4903 34.289,4.4004 6.3711,-0.054 11.147,-0.83998 32.512,-5.3504 12.512,-2.6416 20.651,-3.2931 21.616,-1.7306 0.79049,1.279 -2.4805,3.8736 -5.9174,4.6936 -1.65,0.39369 -3.45,1.027 -4,1.4073 -10.328,7.1416 -41.393,9.7225 -68.5,5.691 z m 6.4323,-11.246 c -5.5372,-0.72148 -12.062,-1.9496 -14.5,-2.7291 -7.7742,-2.486 -16.155,-3.9351 -26.416,-4.5674 l -9.9837,-0.61529 6.2919,-3.742 c 6.925,-4.1185 5.848,-4.1087 20.176,-0.18437 9.5369,2.6122 45.252,2.6342 64.487,0.0397 18.235,-2.4596 43.283,-1.2432 46.799,2.2726 1.452,1.452 -5.089,7.2885 -7.286,6.5014 -11.269,-4.0372 -22.344,-4.1524 -34,-0.35373 -15.774,5.1407 -26.142,5.9093 -45.568,3.3782 z m -14.913,-16.512 c -10.49,-2.0616 -12.714,-3.1041 -10.771,-5.0473 0.86365,-0.86365 2.7077,-0.81498 7.45,0.19664 11.008,2.3482 45.853,1.0755 59.302,-2.166 15.454,-3.7246 56.42,-0.73801 57.233,4.1724 0.73866,4.4637 -4.2508,5.3837 -17.63,3.2508 -14.108,-2.2491 -34.886,-1.8003 -52.603,1.1362 -11.2,1.8565 -28.922,1.2204 -42.981,-1.5428 z m 107.48,-10.26 c -14.938,-2.9173 -26.931,-3.9421 -36.843,-3.1481 -5.3112,0.42541 -11.232,0.90119 -13.157,1.0573 -1.925,0.15609 -8.225,0.95074 -14,1.7659 -18.436,2.6022 -43,2.2042 -43,-0.69675 0,-2.7877 6.1945,-4.3131 15.604,-3.8425 6.7828,0.33925 11.5,-0.0619 18.5,-1.5733 20.922,-4.5171 40.843,-5.2515 57.396,-2.1158 3.3,0.62513 11.844,1.8757 18.987,2.779 10.559,1.3353 13.048,1.957 13.311,3.3247 0.39678,2.0603 -4.4668,4.9563 -7.2981,4.3456 -1.1,-0.23727 -5.375,-1.0905 -9.5,-1.8961 z m -2.5,-11.643 c -6.05,-0.56005 -15.725,-1.7482 -21.5,-2.6402 -12.82,-1.9803 -29.813,-1.3684 -44.5,1.6023 -10.584,2.141 -19.019,2.6288 -19.931,1.1528 -1.4044,-2.2724 6.1805,-5.9814 14.524,-7.1022 4.6241,-0.62118 10.927,-1.772 14.006,-2.5573 10.211,-2.6045 30.221,-2.0881 42.902,1.1071 14.893,3.7527 27.066,6.3414 32.385,6.8869 6.592,0.67601 7.9458,1.2093 6.9912,2.754 -0.42095,0.68112 -3.0249,0.83814 -7.2663,0.43819 -3.6356,-0.34283 -11.56,-1.0815 -17.61,-1.6416 z m 3.5,-8.947 c -5.225,-1.1917 -13.55,-3.1358 -18.5,-4.3203 -7.4118,-1.7736 -12.123,-2.1603 -26.7,-2.1913 -18.008,-0.0383 -20.189,-0.65133 -11.531,-3.2415 9.8325,-2.9416 32.852,-0.7788 71.231,6.6925 2.75,0.53535 7.3846,1.4319 10.299,1.9924 2.9146,0.56046 6.6271,1.019 8.25,1.019 2.8923,0 3.693,0.89135 2.2008,2.4501 -1.4024,1.465 -25.494,-0.17585 -35.25,-2.4009 z m 21.5,-6.6907 c -4.4,-0.81662 -10.7,-1.8866 -14,-2.3778 -13.862,-2.0632 -18.211,-2.8196 -22,-3.8258 -3.2275,-0.85712 -24.111,-3.1023 -29.25,-3.1447 -2.7513,-0.0227 -1.0037,-1.7694 3,-2.9984 2.5917,-0.79563 8.5211,-1.2351 15.196,-1.1263 10.758,0.17535 15.148,1.0219 32.221,6.2124 6.4996,1.976 21.577,4.6027 32.083,5.589 4.2016,0.39449 6.25,1.0179 6.25,1.9022 0,1.2928 -10.489,2.5154 -14,1.6318 -0.825,-0.20766 -5.1,-1.0457 -9.5,-1.8623 z m 12.5,-6.96 c -5.775,-0.88815 -12.425,-2.4664 -14.777,-3.5071 -4.209,-1.8622 -15.476,-4.0938 -30.223,-5.9862 -4.125,-0.52935 -9.9382,-1.2872 -12.918,-1.6841 -12.276,-1.635 -4.0544,-6.6959 10.418,-6.4135 9.4876,0.18515 28.252,4.3974 43.5,9.765 5.8682,2.0657 10.22,2.7801 20,3.2835 10.041,0.51682 12.5,0.93263 12.5,2.1138 0,4.1763 -11.026,5.1159 -28.5,2.4286 z m -1.0685,-12.001 c -2.9873,-0.88112 -5.8815,-1.9663 -6.4315,-2.4114 -0.55,-0.44517 -3.25,-1.262 -6,-1.8151 -11.273,-2.2675 -27.47,-6.7306 -27.484,-7.5734 -0.0186,-1.0814 19.236,-0.047 23.52,1.2635 1.6303,0.49871 6.1141,1.4437 9.9641,2.1 3.85,0.65626 9.025,1.8172 11.5,2.5799 2.475,0.76268 5.7695,1.6445 7.321,1.9595 3.7988,0.7714 2.9134,2.71 -1.9012,4.1627 -5.1131,1.5427 -4.2864,1.5637 -10.488,-0.26563 z m 44.894,-15.426 c -5.129,-1.1156 -12.701,-2.742 -16.826,-3.6141 -4.125,-0.8721 -10.875,-2.492 -15,-3.5999 -8.8079,-2.3655 -18.569,-3.6097 -28.993,-3.6957 l -7.4933,-0.0618 9.9703,-5.6169 c 5.4837,-3.0893 12.456,-7.2867 15.493,-9.3276 3.04,-2.04 8.91,-5.53 13.03,-7.77 l 7.5,-4.0642 11.5,0.88755 c 12.761,0.98485 23.923,2.3431 31.5,3.8331 14.938,2.9374 44.01,4.2344 59.5,2.6545 l 8.5,-0.86696 -2.3488,2.5573 c -7.8779,8.5772 -58.292,10.05 -87.93,2.5682 -11.948,-3.016 -30.669,-2.4178 -37.148,1.187 -5.5614,3.0943 -6.057,4.5333 -1.8668,5.4204 3.2597,0.69012 5.5455,0.93514 17.386,1.8637 3.351,0.26279 7.851,1.3714 10,2.4635 6.2815,3.1923 31.833,8.9657 42.907,9.695 12.095,0.79652 16.097,3.8413 6.8202,5.19 -17.921,2.6055 -25.612,2.6691 -36.495,0.30189 z m 23.68,-10.02 c -13.331,-1.5567 -25.879,-4.7094 -34.366,-8.6345 -3.0604,-1.4154 -7.7021,-2.6114 -10.803,-2.7838 -5.3378,-0.29663 -7.2375,-0.95632 -6.0819,-2.1119 1.1596,-1.1596 18.632,-0.40701 24.371,1.0497 10.172,2.5818 27.275,4.5325 39.804,4.5399 24.079,0.0142 28.438,1.1443 22.502,5.8344 -5.2328,4.1348 -13.73,4.6399 -35.426,2.1063 z m 30.799,-22.908 c -2.6396,-0.52816 -7.9492,-1.1756 -11.799,-1.4387 -13.709,-0.93703 -21.069,-1.8322 -26,-3.1624 -2.75,-0.74181 -10.512,-1.8827 -17.25,-2.5353 -10.975,-1.0631 -12.25,-1.3852 -12.25,-3.096 0,-4.3013 5.0217,-4.9372 32.296,-4.0901 38.158,1.1851 77.176,0.40394 86.204,-1.7258 5.4403,-1.2834 6.5,-1.2213 6.5,0.38127 0,1.4653 -8.2641,9.5428 -9.9777,9.7524 -0.56229,0.0687 -2.2598,0.22425 -3.7723,0.34555 -1.5125,0.12131 -5.45,0.99459 -8.75,1.9406 -3.3,0.94604 -11.175,2.3092 -17.5,3.0292 -6.325,0.72 -11.815,1.3655 -12.201,1.4344 -0.38543,0.0689 -2.8604,-0.30686 -5.5,-0.83502 z m -9.4769,-17.002 c -5.8975,-0.77476 -19.7,-1.4289 -42.072,-1.9939 -2.3024,-0.0581 -2.2354,-2.6482 0.12075,-4.6656 3.2915,-2.8183 13.162,-5.5992 17.588,-4.9553 24.939,3.6282 70.612,5.1214 92.905,3.0375 9.8752,-0.92312 8.3789,1.409 -2.7266,4.2498 -6.8279,1.7466 -13.8,2.4572 -32.379,3.3003 -13.022,0.59092 -23.883,1.2802 -24.134,1.5317 -0.61521,0.6152 -0.89143,0.60022 -9.3016,-0.50463 z m -2.32,-12.945 c -24.5,-2.496 -24.53,-3.311 -0.5,-14.097 5.22,-2.345 11.35,-5.124 13.61,-6.176 4.76,-2.213 20.37,-6.598 38.69,-10.865 25.06,-5.839 73.7,-9.43 73.7,-5.442 0,4.0265 -9.5738,6.6151 -16.8,4.5426 -5.7935,-1.6616 -27.027,1.4634 -53.7,7.9031 -4.4,1.0623 -10.213,2.2933 -12.918,2.7355 -7.1614,1.1709 -6.8602,2.9069 0.63102,3.6374 3.4577,0.33719 9.8867,1.069 14.287,1.6261 10.345,1.3101 23.748,1.5292 34.75,0.56824 10.594,-0.92533 11.684,0.77124 4.5,7.0034 -6.0527,5.251 -11.395,7.2567 -21.452,8.055 -4.8388,0.38407 -9.6978,1.0606 -10.798,1.5034 -2.9055,1.1696 -49.925,0.4386 -64,-0.99503 z m 25.5,-30.06 c 0,-2.1596 21.618,-9.3605 31.812,-10.596 3.1287,-0.37929 6.5436,-1.1352 7.5887,-1.6798 1.0451,-0.54462 4.6451,-1.3683 8,-1.8305 3.36,-0.463 9.25,-1.325 13.1,-1.918 5.8032,-0.89293 32.803,-1.5647 45.25,-1.1258 3.3519,0.11819 4.4548,2.2168 2,3.8056 -0.6875,0.44496 -10.25,1.0786 -21.25,1.408 -19.866,0.595 -38.42,2.1119 -48,3.924 -10.135,1.9173 -27.116,5.9772 -31,7.4118 -4.6834,1.7298 -7.5,1.9553 -7.5,0.60038 z m 24.7,-14.668 c -7.0366,-7.0367 74.441,-17.465 89.631,-11.472 8.2066,3.238 1.0499,4.6324 -25.532,4.9747 -18.089,0.23294 -48.366,3.1111 -51.16,4.8634 -0.94246,0.59118 -5.0477,1.3714 -11.223,2.1331 -0.59584,0.07349 -1.3681,-0.15113 -1.7161,-0.49914 z m 26.49,-15.431 c 2.0819,-6.2458 55.749,-12.992 70.899,-8.9129 4.5704,1.2307 4.5594,1.1951 1.7589,5.7265 l -2.1544,3.4859 -10.096,-0.7916 c -11.573,-0.90744 -37.242,-0.6168 -46.096,0.52193 -9.2392,1.1883 -14.714,1.1769 -14.312,-0.02983 z m 46.81,-13.37 c -5.225,0.03626 -10.85,0.26126 -12.5,0.5 -2.158,0.31224 -3,0.02558 -3,-1.0213 0,-4.8265 49.83,-9.4367 55.435,-5.1288 2.3878,1.8354 2.4006,1.9235 0.66172,4.5773 l -1.773,2.7059 -14.662,-0.84955 c -8.06,-0.467 -18.94,-0.819 -24.16,-0.783 z m -1,-10.524 c 0,-2.167 22.75,-7.2784 38.39,-8.624 4.335,-0.3732 9.049,-1.2832 10.473,-2.022 5.025,-2.6072 5.193,0.9895 0.342,7.334 -1.633,2.1357 -2.524,2.252 -21.13,2.758 -10.684,0.29059 -19.646,0.74973 -19.917,1.0203 -0.92,0.914 -8.16,0.5 -8.16,-0.466 z"
     id="path4"
     inkscape:connector-curvature="0" />
</svg>
